<svg width="64" height="52" viewBox="0 0 64 52" fill="none" xmlns="http://www.w3.org/2000/svg">
<path d="M10.9208 23.0957L1.6676 22.2402L8.9473 28.1931C9.39012 26.3946 10.0585 24.6849 10.9208 23.0957Z" fill="#FCD400"/>
<path d="M14.5795 18.1759L6.16296 14.513L11.2528 22.5058C12.177 20.9231 13.297 19.4687 14.5795 18.1759Z" fill="#FCD400"/>
<path d="M25.9112 12.1627L20.0283 2.73102L20.8319 13.7861C22.4289 13.0458 24.1316 12.495 25.9112 12.1627Z" fill="#FCD400"/>
<path d="M32.4268 11.9424L29.5261 1.20824L27.0356 11.9834C27.9713 11.8595 28.9259 11.7955 29.8955 11.7955C30.7518 11.7955 31.5965 11.8454 32.4268 11.9424Z" fill="#FCD400"/>
<path d="M38.889 13.7538L40.0518 0L33.6448 12.1201C35.4835 12.4424 37.2423 12.9974 38.889 13.7538Z" fill="#FCD400"/>
<path d="M44.2283 17.2447L45.5054 10.0425L39.7494 14.1724C41.3728 15.0075 42.8768 16.0424 44.2283 17.2447Z" fill="#FCD400"/>
<path d="M44.837 17.8073C46.1508 19.0691 47.3054 20.4958 48.2668 22.054L55.7825 12.1095L44.837 17.8073Z" fill="#FCD400"/>
<path d="M50.798 28.0106L57.3587 22.3356L48.7943 22.9569C49.6636 24.5316 50.3421 26.2266 50.798 28.0106Z" fill="#FCD400"/>
<path d="M51.4686 33.3156L63.6933 31.1697L51.0468 29.1025C51.3201 30.4649 51.465 31.8736 51.4686 33.3156Z" fill="#FCD400"/>
<path d="M19.872 14.2606L13.9349 10.1176L15.4776 17.3209C16.8041 16.1283 18.2793 15.0978 19.872 14.2606Z" fill="#FCD400"/>
<mask id="mask0_76_46" style="mask-type:alpha" maskUnits="userSpaceOnUse" x="14" y="15" width="37" height="37">
<path fill-rule="evenodd" clip-rule="evenodd" d="M32.0528 51.3461C41.9815 51.3461 50.0304 43.2971 50.0304 33.3686C50.0304 23.4398 41.9815 15.391 32.0528 15.391C22.1241 15.391 14.0753 23.4398 14.0753 33.3686C14.0753 43.2971 22.1241 51.3461 32.0528 51.3461ZM34.2101 47.7505C42.153 47.7505 48.5922 41.3117 48.5922 33.3686C48.5922 25.4256 42.153 18.9865 34.2101 18.9865C26.2672 18.9865 19.8281 25.4256 19.8281 33.3686C19.8281 41.3117 26.2672 47.7505 34.2101 47.7505Z" fill="#D9D9D9"/>
</mask>
<g mask="url(#mask0_76_46)">
<path fill-rule="evenodd" clip-rule="evenodd" d="M28.0978 14.3123H12.6371V39.1213H28.0978V33.3685H50.7495V14.3123H28.0978Z" fill="#FCD400"/>
</g>
<path d="M28.2938 26.2328H29.6385L33.6094 35.3453L37.2322 26.2328H38.4978L34.3529 36.6742H32.85L28.2938 26.2328Z" fill="#FCD400"/>
<path d="M8.69674 29.3465L0 30.1327L8.32248 33.3688C8.32248 33.3687 8.32248 33.369 8.32248 33.3688C8.32248 31.9944 8.45102 30.6496 8.69674 29.3465Z" fill="#FCD400"/>
<path d="M7.84216 42.1321H8.66733L11.104 47.7239L13.3271 42.1321H14.1037L11.5603 48.5393H10.638L7.84216 42.1321Z" fill="#FCD400"/>
<path d="M15.5944 48.5393H14.9149V44.0737H15.5944V48.5393ZM14.7693 42.4428C14.7693 42.3133 14.8146 42.1969 14.9052 42.0933C15.0022 41.9898 15.1187 41.938 15.2546 41.938C15.3841 41.938 15.5006 41.9898 15.6041 42.0933C15.7077 42.1969 15.7595 42.3133 15.7595 42.4428C15.7595 42.5787 15.7077 42.6952 15.6041 42.7923C15.5006 42.8829 15.3841 42.9282 15.2546 42.9282C15.1187 42.9282 15.0022 42.8829 14.9052 42.7923C14.8146 42.6952 14.7693 42.5787 14.7693 42.4428Z" fill="#FCD400"/>
<path d="M19.9395 48.5393L19.8619 47.7433H19.823C19.7454 47.8662 19.6418 47.9827 19.5124 48.0928C19.3829 48.2028 19.2373 48.2999 19.0755 48.384C18.9202 48.4681 18.7487 48.5329 18.561 48.5782C18.3798 48.6299 18.1986 48.6558 18.0174 48.6558C17.5902 48.6558 17.2699 48.5329 17.0563 48.2869C16.8427 48.0345 16.7359 47.7206 16.7359 47.3453C16.7359 46.9764 16.8298 46.6819 17.0175 46.4618C17.2051 46.2418 17.4349 46.0768 17.7067 45.9667C17.9785 45.8567 18.2633 45.7855 18.561 45.7532C18.8652 45.7208 19.1305 45.7046 19.3571 45.7046H19.7939V45.5881C19.7939 45.3422 19.7583 45.1545 19.6871 45.0251C19.6224 44.8956 19.5253 44.7856 19.3959 44.695C19.2859 44.6238 19.1661 44.5753 19.0367 44.5494C18.9137 44.517 18.7487 44.5009 18.5416 44.5009C18.2698 44.5009 18.0303 44.5365 17.8232 44.6076C17.6161 44.6788 17.4155 44.7727 17.2213 44.8892L17.066 44.3067C17.4996 44.0543 18.0174 43.9281 18.6193 43.9281C18.8587 43.9281 19.0852 43.9507 19.2988 43.996C19.5124 44.0349 19.7001 44.1061 19.8619 44.2096C20.0496 44.3261 20.1984 44.4911 20.3084 44.7047C20.4185 44.9183 20.4735 45.1836 20.4735 45.5008V48.5393H19.9395ZM18.2212 48.0831C18.4866 48.0831 18.7681 47.9989 19.0658 47.8307C19.3635 47.6624 19.6062 47.4197 19.7939 47.1026V46.1997H19.7065C19.4412 46.1997 19.1758 46.2094 18.9105 46.2289C18.6451 46.2483 18.4024 46.2968 18.1824 46.3745C17.9688 46.4521 17.7941 46.5654 17.6582 46.7142C17.5223 46.8566 17.4543 47.054 17.4543 47.3064C17.4543 47.5588 17.5223 47.753 17.6582 47.8889C17.8006 48.0183 17.9882 48.0831 18.2212 48.0831Z" fill="#FCD400"/>
<path d="M25.0754 48.5393V45.5881C25.0754 45.1998 24.9881 44.9215 24.8133 44.7533C24.6386 44.585 24.4153 44.5009 24.1435 44.5009C23.9817 44.5009 23.8199 44.5267 23.6581 44.5785C23.5028 44.6303 23.3572 44.708 23.2212 44.8115C23.0853 44.9086 22.9656 45.0316 22.8621 45.1804C22.7585 45.3228 22.6776 45.4878 22.6194 45.6755V48.5393H21.9398V44.0737H22.4737L22.5514 44.9086H22.5902C22.6744 44.6368 22.8621 44.407 23.1533 44.2193C23.4445 44.0252 23.8069 43.9281 24.2406 43.9281C24.4477 43.9281 24.6418 43.9572 24.823 44.0155C25.0107 44.0672 25.1725 44.1546 25.3084 44.2776C25.4443 44.4005 25.5511 44.5623 25.6288 44.763C25.7129 44.9636 25.755 45.2095 25.755 45.5008V48.5393H25.0754Z" fill="#FCD400"/>
<path d="M28.8996 48.6558C28.5695 48.6558 28.2815 48.5911 28.0356 48.4617C27.7897 48.3322 27.5858 48.1607 27.424 47.9471C27.2622 47.7336 27.1392 47.4876 27.0551 47.2094C26.9774 46.9246 26.9386 46.6269 26.9386 46.3162C26.9386 45.9991 26.9807 45.6949 27.0648 45.4037C27.1554 45.1125 27.2848 44.86 27.4531 44.6465C27.6279 44.4264 27.8447 44.2517 28.1035 44.1222C28.3624 43.9928 28.6634 43.9281 29.0064 43.9281C29.44 43.9281 29.7959 44.0219 30.0742 44.2096C30.3525 44.3973 30.5337 44.6303 30.6179 44.9086V41.3555H31.2974V48.5393H30.7635L30.6858 47.7433H30.647C30.4917 47.9827 30.2652 48.1963 29.9674 48.384C29.6697 48.5652 29.3138 48.6558 28.8996 48.6558ZM28.9772 48.0831C29.2879 48.0831 29.5921 47.9989 29.8898 47.8307C30.194 47.6624 30.4367 47.4197 30.6179 47.1026V45.6755C30.5014 45.3066 30.304 45.0186 30.0257 44.8115C29.7539 44.6044 29.4465 44.5009 29.1035 44.5009C28.8769 44.5009 28.6731 44.5462 28.4919 44.6368C28.3171 44.7274 28.1683 44.8536 28.0453 45.0154C27.9223 45.1772 27.8252 45.3713 27.7541 45.5978C27.6893 45.8244 27.657 46.0735 27.657 46.3454C27.657 46.5525 27.6796 46.7596 27.7249 46.9667C27.7702 47.1738 27.8447 47.3614 27.9482 47.5297C28.0518 47.6915 28.1877 47.8242 28.3559 47.9277C28.5242 48.0313 28.7313 48.0831 28.9772 48.0831Z" fill="#FCD400"/>
<path d="M35.7758 43.6757C35.7758 43.8375 35.8049 43.9734 35.8632 44.0834C35.9279 44.187 36.025 44.2808 36.1544 44.3649C36.2903 44.4491 36.4586 44.53 36.6592 44.6076C36.8663 44.6788 37.1122 44.763 37.397 44.86C37.6365 44.9377 37.8727 45.0283 38.1057 45.1319C38.3387 45.2289 38.5458 45.3519 38.727 45.5008C38.9147 45.6431 39.0635 45.8244 39.1735 46.0444C39.2836 46.258 39.3386 46.5201 39.3386 46.8307C39.3386 47.1608 39.2739 47.4423 39.1444 47.6753C39.015 47.9083 38.8435 48.0992 38.6299 48.2481C38.4163 48.3905 38.1704 48.494 37.8921 48.5587C37.6138 48.6235 37.3258 48.6558 37.0281 48.6558C36.6074 48.6558 36.2159 48.604 35.8534 48.5005C35.491 48.3969 35.1771 48.2707 34.9118 48.1219L35.1157 47.4132C35.2386 47.4974 35.3616 47.5782 35.4846 47.6559C35.6075 47.7271 35.7402 47.7886 35.8826 47.8404C36.0314 47.8921 36.1932 47.9342 36.368 47.9666C36.5427 47.9989 36.7433 48.0151 36.9699 48.0151C37.2611 48.0151 37.5103 47.9892 37.7174 47.9374C37.9245 47.8857 38.0927 47.8145 38.2222 47.7239C38.3516 47.6268 38.4454 47.5135 38.5037 47.3841C38.5619 47.2547 38.5911 47.1155 38.5911 46.9667C38.5911 46.7466 38.5393 46.5622 38.4357 46.4133C38.3322 46.258 38.1963 46.1253 38.028 46.0153C37.8662 45.9053 37.685 45.8147 37.4844 45.7435C37.2902 45.6658 37.0961 45.5946 36.9019 45.5299C36.6236 45.4393 36.3712 45.3422 36.1447 45.2387C35.9182 45.1351 35.724 45.0121 35.5622 44.8698C35.4069 44.7274 35.2839 44.5623 35.1933 44.3747C35.1092 44.187 35.0671 43.9637 35.0671 43.7048C35.0671 43.4136 35.1189 43.1676 35.2224 42.967C35.3325 42.7599 35.4781 42.5916 35.6593 42.4622C35.847 42.3328 36.067 42.2389 36.3194 42.1807C36.5718 42.116 36.8437 42.0836 37.1349 42.0836C37.4844 42.0836 37.8209 42.1192 38.1445 42.1904C38.4681 42.2616 38.7432 42.3489 38.9697 42.4525L38.7658 43.2C38.6623 43.1094 38.5393 43.035 38.3969 42.9767C38.261 42.912 38.1154 42.8635 37.9601 42.8311C37.8112 42.7923 37.6623 42.7664 37.5135 42.7534C37.3646 42.734 37.2255 42.7243 37.0961 42.7243C36.6883 42.7243 36.3647 42.802 36.1253 42.9573C35.8923 43.1062 35.7758 43.3456 35.7758 43.6757Z" fill="#FCD400"/>
<path d="M42.5012 43.9281C42.896 43.9281 43.2358 43.996 43.5205 44.132C43.8053 44.2614 44.0383 44.4394 44.2195 44.6659C44.4072 44.8859 44.5431 45.1416 44.6272 45.4328C44.7178 45.7176 44.7631 46.0185 44.7631 46.3356C44.7631 46.6528 44.7178 46.9537 44.6272 47.2385C44.5431 47.5168 44.4104 47.7627 44.2292 47.9763C44.048 48.1834 43.815 48.3484 43.5302 48.4714C43.252 48.5943 42.9219 48.6558 42.54 48.6558C42.1453 48.6558 41.8022 48.5911 41.511 48.4617C41.2262 48.3322 40.99 48.1607 40.8023 47.9471C40.6147 47.7271 40.4755 47.4747 40.3849 47.1899C40.2943 46.9052 40.249 46.6042 40.249 46.2871C40.249 45.97 40.2943 45.669 40.3849 45.3843C40.4755 45.0995 40.6114 44.8503 40.7926 44.6368C40.9803 44.4167 41.2165 44.2452 41.5013 44.1222C41.7861 43.9928 42.1194 43.9281 42.5012 43.9281ZM42.5303 48.1413C42.7892 48.1413 43.0125 48.0928 43.2002 47.9957C43.3943 47.8986 43.5529 47.7692 43.6759 47.6074C43.8053 47.4391 43.8991 47.2482 43.9574 47.0346C44.0156 46.8146 44.0448 46.5848 44.0448 46.3454C44.0448 46.0994 44.0124 45.8632 43.9477 45.6367C43.8894 45.4102 43.7956 45.2128 43.6662 45.0445C43.5367 44.8698 43.3717 44.7306 43.1711 44.6271C42.9769 44.5235 42.7439 44.4717 42.4721 44.4717C42.2067 44.4717 41.9802 44.5203 41.7925 44.6173C41.6049 44.7144 41.4495 44.8439 41.3266 45.0057C41.2036 45.1675 41.113 45.3584 41.0547 45.5784C40.9965 45.792 40.9674 46.0185 40.9674 46.258C40.9674 46.5039 40.9965 46.7401 41.0547 46.9667C41.1195 47.1932 41.2133 47.3938 41.3363 47.5685C41.4657 47.7433 41.6275 47.8824 41.8217 47.986C42.0223 48.0895 42.2585 48.1413 42.5303 48.1413Z" fill="#FCD400"/>
<path d="M46.7197 48.5393H46.0402V41.3555H46.7197V48.5393Z" fill="#FCD400"/>
<path d="M51.1298 48.5393L51.0522 47.7433H51.0133C50.9357 47.8662 50.8321 47.9827 50.7027 48.0928C50.5733 48.2028 50.4276 48.2999 50.2658 48.384C50.1105 48.4681 49.939 48.5329 49.7513 48.5782C49.5701 48.6299 49.3889 48.6558 49.2077 48.6558C48.7805 48.6558 48.4602 48.5329 48.2466 48.2869C48.033 48.0345 47.9262 47.7206 47.9262 47.3453C47.9262 46.9764 48.0201 46.6819 48.2078 46.4618C48.3955 46.2418 48.6252 46.0768 48.897 45.9667C49.1688 45.8567 49.4536 45.7855 49.7513 45.7532C50.0555 45.7208 50.3208 45.7046 50.5474 45.7046H50.9842V45.5881C50.9842 45.3422 50.9486 45.1545 50.8774 45.0251C50.8127 44.8956 50.7156 44.7856 50.5862 44.695C50.4762 44.6238 50.3564 44.5753 50.227 44.5494C50.104 44.517 49.939 44.5009 49.7319 44.5009C49.4601 44.5009 49.2206 44.5365 49.0135 44.6076C48.8064 44.6788 48.6058 44.7727 48.4116 44.8892L48.2563 44.3067C48.6899 44.0543 49.2077 43.9281 49.8096 43.9281C50.049 43.9281 50.2755 43.9507 50.4891 43.996C50.7027 44.0349 50.8904 44.1061 51.0522 44.2096C51.2399 44.3261 51.3887 44.4911 51.4987 44.7047C51.6088 44.9183 51.6638 45.1836 51.6638 45.5008V48.5393H51.1298ZM49.4115 48.0831C49.6769 48.0831 49.9584 47.9989 50.2561 47.8307C50.5538 47.6624 50.7965 47.4197 50.9842 47.1026V46.1997H50.8968C50.6315 46.1997 50.3662 46.2094 50.1008 46.2289C49.8355 46.2483 49.5928 46.2968 49.3727 46.3745C49.1591 46.4521 48.9844 46.5654 48.8485 46.7142C48.7126 46.8566 48.6446 47.054 48.6446 47.3064C48.6446 47.5588 48.7126 47.753 48.8485 47.8889C48.9909 48.0183 49.1786 48.0831 49.4115 48.0831Z" fill="#FCD400"/>
<path d="M55.5377 44.7921C55.4341 44.7338 55.3306 44.6885 55.227 44.6562C55.1235 44.6173 55.0231 44.5979 54.9261 44.5979C54.7966 44.5979 54.6737 44.6335 54.5572 44.7047C54.4407 44.7759 54.3339 44.873 54.2368 44.996C54.1397 45.1189 54.0524 45.2613 53.9747 45.4231C53.9035 45.5849 53.8485 45.7532 53.8097 45.9279V48.5393H53.1301V44.0737H53.664L53.7417 45.0542H53.7805C53.8258 44.9053 53.8841 44.763 53.9553 44.6271C54.0329 44.4911 54.1236 44.3714 54.2271 44.2679C54.3371 44.1643 54.4601 44.0834 54.596 44.0252C54.7319 43.9605 54.8872 43.9281 55.062 43.9281C55.1849 43.9281 55.3144 43.9507 55.4503 43.996C55.5862 44.0349 55.6833 44.0867 55.7415 44.1514L55.5377 44.7921Z" fill="#FCD400"/>
</svg>
