<svg width="41" height="40" viewBox="0 0 41 40" fill="none" xmlns="http://www.w3.org/2000/svg">
<path fill-rule="evenodd" clip-rule="evenodd" d="M36.8726 17.6115C36.6352 19.2561 36.0726 20.8191 35.2389 22.2565C35.3014 22.6124 35.3334 22.9721 35.3334 23.3333C35.3334 24.588 34.9699 25.7888 34.2964 26.8799C33.9603 27.4244 33.8738 28.0625 33.8405 28.4841C33.8024 28.9673 33.8152 29.496 33.8497 30.0039C33.8884 30.5737 33.9584 31.1719 34.0387 31.7362C33.3882 31.5465 32.6831 31.356 32.0102 31.2042C31.4505 31.0779 30.8778 30.9703 30.3591 30.9167C29.9065 30.87 29.2527 30.8338 28.6679 31.0228C27.3895 31.4361 25.9827 31.6667 24.5001 31.6667C22.7369 31.6667 21.1176 31.3537 19.6982 30.81C19.3568 30.8255 19.0129 30.8333 18.6667 30.8333C16.659 30.8333 14.7267 30.5693 12.9188 30.0813C15.5471 33.1211 19.8799 35 24.5001 35C26.305 35 28.0373 34.7229 29.6338 34.2137C29.6365 34.2138 29.6416 34.2137 29.6492 34.2135C29.6902 34.2127 29.804 34.2105 30.0166 34.2324C30.3509 34.267 30.7808 34.344 31.2766 34.4558C32.2639 34.6785 33.3733 35.0072 34.238 35.2817C36.0715 35.8637 37.8481 34.2636 37.5205 32.403C37.3794 31.6021 37.2329 30.6247 37.1754 29.778C37.1465 29.3523 37.1433 29.0028 37.1635 28.7464C37.1719 28.6401 37.1827 28.5735 37.1895 28.5381C38.1271 26.9848 38.6667 25.2162 38.6667 23.3333C38.6667 21.2108 38.0075 19.2725 36.8726 17.6115Z" fill="#FCD400"/>
<path fill-rule="evenodd" clip-rule="evenodd" d="M9.66171 9.49694C7.41512 11.2149 6.16664 13.4701 6.16664 15.8333C6.16664 17.0117 6.47341 18.1467 7.04895 19.2021C7.26816 19.604 7.33034 20.0187 7.35258 20.2994C7.37683 20.6055 7.36474 20.92 7.33812 21.2142C7.28483 21.8032 7.1577 22.4705 7.00522 23.1277C6.82685 23.8966 6.5983 24.7165 6.36637 25.4863C7.24679 25.1663 8.20907 24.8384 9.12132 24.5723C9.8586 24.3572 10.6032 24.1705 11.2658 24.0657C11.8367 23.9755 12.6651 23.8868 13.3782 24.1335C14.9788 24.6873 16.7693 25 18.6666 25C22.2453 25 25.4234 23.8889 27.6716 22.1697C29.9182 20.4517 31.1666 18.1965 31.1666 15.8333C31.1666 13.4702 29.9182 11.2149 27.6716 9.49694C25.4234 7.77778 22.2453 6.66667 18.6666 6.66667C15.088 6.66667 11.9098 7.77778 9.66171 9.49694ZM7.63688 6.84908C10.5161 4.64735 14.4212 3.33334 18.6666 3.33334C22.9121 3.33334 26.8172 4.64735 29.6964 6.84908C32.5771 9.05199 34.5 12.2134 34.5 15.8333C34.5 19.4532 32.5771 22.6147 29.6964 24.8176C26.8172 27.0193 22.9121 28.3333 18.6666 28.3333C16.4282 28.3333 14.2901 27.9684 12.3488 27.3044C12.3468 27.3098 12.1894 27.2945 11.7864 27.3582C11.322 27.4316 10.7292 27.5755 10.0549 27.7722C8.71243 28.1638 7.20485 28.7179 6.05654 29.1648C4.06716 29.939 2.04057 28.0284 2.71083 25.9932C3.06608 24.9146 3.48506 23.5514 3.75813 22.3744C3.89568 21.7815 3.98495 21.283 4.01835 20.9138C4.02995 20.7857 4.03294 20.6923 4.03228 20.6291C3.26514 19.1632 2.83331 17.5421 2.83331 15.8333C2.83331 12.2134 4.75615 9.05199 7.63688 6.84908ZM4.02679 20.5382C4.02695 20.538 4.02776 20.5425 4.02873 20.5522C4.02711 20.5433 4.02662 20.5384 4.02679 20.5382Z" fill="#FCD400"/>
</svg>
