<svg width="382" height="308" viewBox="0 0 382 308" fill="none" xmlns="http://www.w3.org/2000/svg">
<path d="M65.1831 138.352L9.95331 133.227L53.404 168.888C56.0471 158.114 60.0366 147.872 65.1831 138.352Z" fill="#FCD400"/>
<path d="M87.0218 108.88L36.7853 86.9383L67.1655 134.819C72.6818 125.338 79.3665 116.625 87.0218 108.88Z" fill="#FCD400"/>
<path d="M154.657 72.8592L119.544 16.3598L124.34 82.5843C133.872 78.1491 144.035 74.8496 154.657 72.8592Z" fill="#FCD400"/>
<path d="M193.548 71.5398L176.234 7.23781L161.369 71.7851C166.954 71.0427 172.652 70.6595 178.439 70.6595C183.55 70.6595 188.592 70.9585 193.548 71.5398Z" fill="#FCD400"/>
<path d="M232.119 82.3906L239.059 0L200.817 72.6042C211.792 74.5345 222.29 77.8594 232.119 82.3906Z" fill="#FCD400"/>
<path d="M263.988 103.302L271.611 60.1582L237.254 84.8984C246.944 89.9004 255.921 96.0999 263.988 103.302Z" fill="#FCD400"/>
<path d="M267.621 106.672C275.463 114.231 282.354 122.778 288.092 132.112L332.952 72.5403L267.621 106.672Z" fill="#FCD400"/>
<path d="M303.201 167.794L342.36 133.799L291.241 137.52C296.43 146.954 300.48 157.107 303.201 167.794Z" fill="#FCD400"/>
<path d="M307.203 199.573L380.169 186.719L304.686 174.335C306.317 182.496 307.182 190.935 307.203 199.573Z" fill="#FCD400"/>
<path d="M118.611 85.4265L83.1741 60.6084L92.382 103.759C100.299 96.6146 109.105 90.4415 118.611 85.4265Z" fill="#FCD400"/>
<mask id="mask0_29_893" style="mask-type:alpha" maskUnits="userSpaceOnUse" x="84" y="92" width="215" height="216">
<path fill-rule="evenodd" clip-rule="evenodd" d="M191.315 307.583C250.577 307.583 298.619 259.366 298.619 199.89C298.619 140.414 250.577 92.198 191.315 92.198C132.053 92.198 84.0119 140.414 84.0119 199.89C84.0119 259.366 132.053 307.583 191.315 307.583ZM204.192 286.044C251.6 286.044 290.034 247.473 290.034 199.89C290.034 152.309 251.6 113.736 204.192 113.736C156.782 113.736 118.349 152.309 118.349 199.89C118.349 247.473 156.782 286.044 204.192 286.044Z" fill="#D9D9D9"/>
</mask>
<g mask="url(#mask0_29_893)">
<path fill-rule="evenodd" clip-rule="evenodd" d="M167.709 85.7364H75.4276V234.351H167.709V199.89H302.911V85.7364H167.709Z" fill="#FCD400"/>
</g>
<path d="M168.878 157.145H176.905L200.606 211.732L222.23 157.145H229.784L205.044 219.692H196.073L168.878 157.145Z" fill="#FCD400"/>
<path d="M51.9086 175.797L0 180.507L49.6748 199.892C49.6748 199.892 49.6748 199.893 49.6748 199.892C49.6748 191.658 50.442 183.603 51.9086 175.797Z" fill="#FCD400"/>
<path d="M46.8079 252.388H51.7331L66.277 285.884L79.5461 252.388H84.1816L69.0003 290.769H63.4957L46.8079 252.388Z" fill="#FCD400"/>
<path d="M93.0792 290.769H89.0231V264.018H93.0792V290.769ZM88.1539 254.249C88.1539 253.473 88.4243 252.775 88.9652 252.155C89.5446 251.535 90.2399 251.225 91.0511 251.225C91.8237 251.225 92.519 251.535 93.1371 252.155C93.7552 252.775 94.0642 253.473 94.0642 254.249C94.0642 255.063 93.7552 255.761 93.1371 256.342C92.519 256.885 91.8237 257.156 91.0511 257.156C90.2399 257.156 89.5446 256.885 88.9652 256.342C88.4243 255.761 88.1539 255.063 88.1539 254.249Z" fill="#FCD400"/>
<path d="M119.014 290.769L118.55 286.001H118.319C117.855 286.737 117.237 287.435 116.464 288.094C115.692 288.753 114.823 289.335 113.857 289.839C112.93 290.343 111.906 290.73 110.786 291.002C109.704 291.312 108.623 291.467 107.541 291.467C104.992 291.467 103.079 290.73 101.805 289.257C100.53 287.745 99.8925 285.865 99.8925 283.616C99.8925 281.406 100.453 279.642 101.573 278.324C102.693 277.006 104.064 276.018 105.687 275.358C107.309 274.699 109.009 274.273 110.786 274.079C112.602 273.885 114.185 273.788 115.537 273.788H118.145V273.09C118.145 271.617 117.932 270.493 117.507 269.718C117.121 268.942 116.542 268.283 115.769 267.74C115.112 267.314 114.398 267.023 113.625 266.868C112.891 266.674 111.906 266.577 110.67 266.577C109.048 266.577 107.618 266.79 106.382 267.217C105.146 267.643 103.949 268.206 102.79 268.903L101.863 265.414C104.451 263.902 107.541 263.146 111.134 263.146C112.563 263.146 113.915 263.282 115.19 263.553C116.464 263.786 117.585 264.212 118.55 264.833C119.671 265.53 120.559 266.519 121.216 267.798C121.873 269.078 122.201 270.667 122.201 272.567V290.769H119.014ZM108.758 288.036C110.342 288.036 112.022 287.532 113.799 286.524C115.576 285.516 117.025 284.062 118.145 282.162V276.754H117.623C116.04 276.754 114.456 276.812 112.872 276.929C111.288 277.045 109.84 277.336 108.526 277.801C107.251 278.266 106.208 278.945 105.397 279.836C104.586 280.689 104.18 281.872 104.18 283.384C104.18 284.896 104.586 286.059 105.397 286.873C106.247 287.648 107.367 288.036 108.758 288.036Z" fill="#FCD400"/>
<path d="M149.669 290.769V273.09C149.669 270.764 149.147 269.097 148.105 268.089C147.062 267.081 145.729 266.577 144.106 266.577C143.141 266.577 142.175 266.732 141.209 267.042C140.282 267.353 139.413 267.818 138.602 268.438C137.791 269.02 137.076 269.756 136.458 270.648C135.84 271.501 135.357 272.49 135.009 273.614V290.769H130.953V264.018H134.14L134.604 269.02H134.835C135.338 267.391 136.458 266.015 138.196 264.891C139.934 263.728 142.098 263.146 144.686 263.146C145.922 263.146 147.081 263.321 148.162 263.67C149.283 263.98 150.248 264.503 151.06 265.24C151.871 265.976 152.508 266.946 152.972 268.147C153.474 269.349 153.725 270.822 153.725 272.567V290.769H149.669Z" fill="#FCD400"/>
<path d="M172.494 291.467C170.524 291.467 168.805 291.079 167.337 290.304C165.869 289.529 164.653 288.501 163.687 287.222C162.721 285.942 161.987 284.469 161.485 282.802C161.021 281.096 160.79 279.313 160.79 277.452C160.79 275.552 161.041 273.73 161.543 271.986C162.084 270.241 162.856 268.729 163.861 267.45C164.904 266.131 166.198 265.085 167.743 264.309C169.288 263.534 171.084 263.146 173.132 263.146C175.72 263.146 177.844 263.708 179.506 264.833C181.167 265.957 182.248 267.353 182.75 269.02V247.735H186.806V290.769H183.62L183.156 286.001H182.924C181.997 287.435 180.645 288.714 178.868 289.839C177.091 290.924 174.967 291.467 172.494 291.467ZM172.958 288.036C174.812 288.036 176.628 287.532 178.405 286.524C180.22 285.516 181.669 284.062 182.75 282.162V273.614C182.055 271.404 180.877 269.679 179.216 268.438C177.593 267.198 175.758 266.577 173.711 266.577C172.359 266.577 171.142 266.849 170.061 267.391C169.018 267.934 168.129 268.69 167.395 269.659C166.661 270.629 166.082 271.792 165.657 273.149C165.271 274.506 165.078 275.998 165.078 277.626C165.078 278.867 165.213 280.108 165.483 281.348C165.754 282.589 166.198 283.713 166.816 284.721C167.434 285.69 168.245 286.485 169.249 287.106C170.254 287.726 171.49 288.036 172.958 288.036Z" fill="#FCD400"/>
<path d="M213.537 261.634C213.537 262.603 213.71 263.418 214.058 264.077C214.444 264.697 215.024 265.259 215.796 265.763C216.608 266.267 217.612 266.752 218.81 267.217C220.046 267.643 221.514 268.147 223.213 268.729C224.643 269.194 226.053 269.737 227.443 270.357C228.834 270.939 230.07 271.675 231.152 272.567C232.272 273.42 233.16 274.506 233.817 275.824C234.474 277.103 234.802 278.673 234.802 280.534C234.802 282.511 234.416 284.198 233.643 285.594C232.871 286.989 231.847 288.133 230.572 289.025C229.297 289.878 227.829 290.498 226.168 290.886C224.507 291.273 222.788 291.467 221.011 291.467C218.501 291.467 216.163 291.157 214 290.537C211.837 289.916 209.963 289.16 208.38 288.269L209.596 284.023C210.33 284.527 211.064 285.012 211.798 285.477C212.532 285.904 213.324 286.272 214.174 286.582C215.062 286.892 216.028 287.144 217.071 287.338C218.114 287.532 219.312 287.629 220.664 287.629C222.402 287.629 223.889 287.474 225.125 287.164C226.362 286.854 227.366 286.427 228.139 285.884C228.911 285.303 229.471 284.624 229.819 283.849C230.167 283.074 230.34 282.24 230.34 281.348C230.34 280.03 230.031 278.925 229.413 278.034C228.795 277.103 227.984 276.308 226.98 275.649C226.014 274.99 224.932 274.447 223.735 274.021C222.576 273.556 221.417 273.129 220.258 272.742C218.597 272.199 217.091 271.617 215.739 270.997C214.387 270.377 213.228 269.64 212.262 268.787C211.335 267.934 210.601 266.946 210.06 265.821C209.558 264.697 209.307 263.359 209.307 261.809C209.307 260.064 209.616 258.591 210.234 257.389C210.891 256.148 211.76 255.14 212.841 254.365C213.962 253.59 215.275 253.027 216.782 252.678C218.288 252.291 219.91 252.097 221.649 252.097C223.735 252.097 225.743 252.31 227.675 252.737C229.606 253.163 231.248 253.686 232.6 254.307L231.383 258.785C230.765 258.242 230.031 257.796 229.181 257.447C228.37 257.059 227.501 256.769 226.574 256.575C225.686 256.342 224.797 256.187 223.909 256.11C223.02 255.993 222.19 255.935 221.417 255.935C218.983 255.935 217.052 256.4 215.623 257.331C214.232 258.222 213.537 259.657 213.537 261.634Z" fill="#FCD400"/>
<path d="M253.679 263.146C256.035 263.146 258.063 263.553 259.763 264.367C261.463 265.143 262.853 266.209 263.935 267.566C265.055 268.884 265.867 270.415 266.369 272.16C266.91 273.866 267.18 275.669 267.18 277.568C267.18 279.468 266.91 281.271 266.369 282.977C265.867 284.644 265.075 286.117 263.993 287.396C262.911 288.637 261.521 289.626 259.821 290.362C258.16 291.099 256.19 291.467 253.911 291.467C251.554 291.467 249.507 291.079 247.769 290.304C246.069 289.529 244.659 288.501 243.539 287.222C242.419 285.904 241.588 284.392 241.047 282.686C240.506 280.98 240.236 279.177 240.236 277.278C240.236 275.378 240.506 273.575 241.047 271.869C241.588 270.163 242.399 268.671 243.481 267.391C244.601 266.073 246.011 265.046 247.711 264.309C249.411 263.534 251.4 263.146 253.679 263.146ZM253.853 288.385C255.398 288.385 256.731 288.094 257.851 287.513C259.01 286.931 259.956 286.156 260.69 285.186C261.463 284.178 262.023 283.035 262.371 281.755C262.718 280.437 262.892 279.061 262.892 277.626C262.892 276.153 262.699 274.738 262.313 273.381C261.965 272.024 261.405 270.842 260.632 269.834C259.86 268.787 258.875 267.954 257.677 267.333C256.518 266.713 255.128 266.403 253.505 266.403C251.921 266.403 250.569 266.694 249.449 267.275C248.329 267.857 247.402 268.632 246.668 269.601C245.934 270.57 245.393 271.714 245.045 273.032C244.698 274.312 244.524 275.669 244.524 277.103C244.524 278.576 244.698 279.991 245.045 281.348C245.432 282.705 245.992 283.907 246.726 284.954C247.498 286.001 248.464 286.834 249.623 287.454C250.82 288.075 252.23 288.385 253.853 288.385Z" fill="#FCD400"/>
<path d="M278.858 290.769H274.802V247.735H278.858V290.769Z" fill="#FCD400"/>
<path d="M305.181 290.769L304.718 286.001H304.486C304.022 286.737 303.404 287.435 302.632 288.094C301.859 288.753 300.99 289.335 300.024 289.839C299.097 290.343 298.073 290.73 296.953 291.002C295.871 291.312 294.79 291.467 293.708 291.467C291.159 291.467 289.247 290.73 287.972 289.257C286.697 287.745 286.06 285.865 286.06 283.616C286.06 281.406 286.62 279.642 287.74 278.324C288.86 277.006 290.232 276.018 291.854 275.358C293.476 274.699 295.176 274.273 296.953 274.079C298.769 273.885 300.352 273.788 301.704 273.788H304.312V273.09C304.312 271.617 304.1 270.493 303.675 269.718C303.288 268.942 302.709 268.283 301.936 267.74C301.28 267.314 300.565 267.023 299.792 266.868C299.058 266.674 298.073 266.577 296.837 266.577C295.215 266.577 293.786 266.79 292.549 267.217C291.313 267.643 290.116 268.206 288.957 268.903L288.03 265.414C290.618 263.902 293.708 263.146 297.301 263.146C298.73 263.146 300.082 263.282 301.357 263.553C302.632 263.786 303.752 264.212 304.718 264.833C305.838 265.53 306.726 266.519 307.383 267.798C308.04 269.078 308.368 270.667 308.368 272.567V290.769H305.181ZM294.925 288.036C296.509 288.036 298.189 287.532 299.966 286.524C301.743 285.516 303.192 284.062 304.312 282.162V276.754H303.79C302.207 276.754 300.623 276.812 299.039 276.929C297.455 277.045 296.007 277.336 294.693 277.801C293.419 278.266 292.376 278.945 291.564 279.836C290.753 280.689 290.348 281.872 290.348 283.384C290.348 284.896 290.753 286.059 291.564 286.873C292.414 287.648 293.534 288.036 294.925 288.036Z" fill="#FCD400"/>
<path d="M331.49 268.322C330.872 267.973 330.254 267.702 329.636 267.508C329.018 267.275 328.419 267.159 327.84 267.159C327.067 267.159 326.333 267.372 325.638 267.798C324.943 268.225 324.305 268.806 323.726 269.543C323.146 270.28 322.625 271.133 322.161 272.102C321.736 273.071 321.408 274.079 321.176 275.126V290.769H317.12V264.018H320.307L320.771 269.892H321.003C321.273 269 321.621 268.147 322.046 267.333C322.509 266.519 323.05 265.802 323.668 265.182C324.325 264.561 325.059 264.077 325.87 263.728C326.681 263.34 327.608 263.146 328.651 263.146C329.385 263.146 330.158 263.282 330.969 263.553C331.78 263.786 332.359 264.096 332.707 264.484L331.49 268.322Z" fill="#FCD400"/>
</svg>
