<svg width="24" height="38" viewBox="0 0 24 38" fill="none" xmlns="http://www.w3.org/2000/svg">
<path fill-rule="evenodd" clip-rule="evenodd" d="M5.83333 3.86979C4.45262 3.86979 3.33333 4.98908 3.33333 6.36979V31.6302C3.33333 33.0109 4.45262 34.1302 5.83333 34.1302H17.5C18.8807 34.1302 20 33.0109 20 31.6302V6.36979C20 4.98908 18.8807 3.86979 17.5 3.86979H17.361L16.9551 4.84388C16.6963 5.4649 16.0895 5.86941 15.4167 5.86941H7.91667C7.24387 5.86941 6.63706 5.4649 6.37825 4.84388L5.9723 3.86979H5.83333ZM0 6.36979C0 3.14813 2.61167 0.536453 5.83333 0.536453H17.5C20.7217 0.536453 23.3333 3.14813 23.3333 6.36979V31.6302C23.3333 34.8519 20.7217 37.4635 17.5 37.4635H5.83333C2.61167 37.4635 0 34.8519 0 31.6302V6.36979Z" fill="#FCD400"/>
</svg>
