<svg width="48" height="48" viewBox="0 0 48 48" fill="none" xmlns="http://www.w3.org/2000/svg">
<path d="M31.5001 4.50001C24.8551 4.50001 19.5001 9.85501 19.5001 16.5C19.5001 16.8525 19.5556 17.3295 19.5946 17.766L6.75009 30.609C6.04848 31.3061 5.49167 32.135 5.11171 33.0481C4.73174 33.9613 4.53613 34.9405 4.53613 35.9295C4.53613 36.9185 4.73174 37.8978 5.11171 38.8109C5.49167 39.724 6.04848 40.553 6.75009 41.25C7.44715 41.9516 8.2761 42.5084 9.18921 42.8884C10.1023 43.2684 11.0816 43.464 12.0706 43.464C13.0596 43.464 14.0388 43.2684 14.952 42.8884C15.8651 42.5084 16.694 41.9516 17.3911 41.25L30.2341 28.4055C30.6691 28.4445 31.1491 28.5 31.5001 28.5C38.1451 28.5 43.5001 23.145 43.5001 16.5C43.508 14.5665 43.0238 12.6628 42.0931 10.968L41.1556 9.23401L39.7501 10.641L33.2806 17.061L30.9376 14.718L37.3576 8.25001L38.7676 6.84301L37.0321 5.90551C35.3367 4.97661 33.4333 4.49302 31.5001 4.50001ZM31.5001 7.50001C32.2291 7.50001 32.7721 7.81501 33.4201 7.96951L27.7501 13.6395L26.6701 14.7195L27.7501 15.75L32.2501 20.25L33.2821 21.33L34.3591 20.25L40.0321 14.58C40.1866 15.228 40.5001 15.771 40.5001 16.5C40.5001 21.555 36.5551 25.5 31.5001 25.5C30.9001 25.5 30.4201 25.5 30.0451 25.4055L29.2501 25.1715L28.6411 25.782L15.2806 39.1425C13.4356 40.9875 10.7056 40.9875 8.86059 39.1425L8.81259 39.0945C7.01259 37.2495 7.02759 34.5495 8.85759 32.7195L22.2181 19.3605L22.8286 18.7515L22.5916 17.9565C22.5016 17.5815 22.4986 17.1015 22.4986 16.5015C22.4986 11.4465 26.4436 7.50151 31.4986 7.50151L31.5001 7.50001Z" fill="#6C6C6C"/>
</svg>
